<svg id="ensNk8WlqQ31" xmlns="http://www.w3.org/2000/svg" xmlns:xlink="http://www.w3.org/1999/xlink" viewBox="0 0 512 512" shape-rendering="geometricPrecision" text-rendering="geometricPrecision"><g><g><path d="M436.992,74.953c-99.989-99.959-262.08-99.935-362.039.055s-99.935,262.08.055,362.039s262.08,99.935,362.039-.055C485.053,388.971,512.015,323.846,512,255.945c-.014-67.89-26.995-132.994-75.008-180.992ZM387.703,356.605c-.011.011-.022.023-.034.034v-.085l-12.971,12.885c-16.775,16.987-41.206,23.976-64.427,18.432-23.395-6.262-45.635-16.23-65.877-29.525-18.806-12.019-36.234-26.069-51.968-41.899-14.477-14.371-27.483-30.151-38.827-47.104-12.408-18.242-22.229-38.114-29.184-59.051-7.973-24.596-1.366-51.585,17.067-69.717l15.189-15.189c4.223-4.242,11.085-4.257,15.326-.034.011.011.023.022.034.034l47.957,47.957c4.242,4.223,4.257,11.085.034,15.326-.011.011-.022.022-.034.034l-28.16,28.16c-8.08,7.992-9.096,20.692-2.389,29.867c10.185,13.978,21.456,27.131,33.707,39.339c13.659,13.718,28.508,26.197,44.373,37.291c9.167,6.394,21.595,5.316,29.525-2.56l27.221-27.648c4.223-4.242,11.085-4.257,15.326-.034.011.011.022.022.034.034l48.043,48.128c4.243,4.222,4.258,11.083.035,15.325Z" fill="#fff"/></g></g></svg>
