<svg id="eSdzNkEB0pK1" xmlns="http://www.w3.org/2000/svg" xmlns:xlink="http://www.w3.org/1999/xlink" viewBox="0 0 299.997 299.997" shape-rendering="geometricPrecision" text-rendering="geometricPrecision"><g><g><path d="M149.996,0C67.157,0,0.001,67.158,0.001,149.997c0,82.837,67.156,150,149.995,150s150-67.163,150-150C299.996,67.158,232.835,0,149.996,0Zm.003,52.686l88.763,55.35h-177.526l88.763-55.35Zm89.869,143.737h-.009c0,8.878-7.195,16.072-16.072,16.072h-147.576c-8.878,0-16.072-7.195-16.072-16.072v-84.865c0-.939.096-1.852.252-2.749l84.808,52.883c.104.065.215.109.322.169.112.062.226.122.34.179.599.309,1.216.558,1.847.721.065.018.13.026.195.041.692.163,1.393.265,2.093.265h.005c.005,0,.01,0,.01,0c.7,0,1.401-.099,2.093-.265.065-.016.13-.023.195-.041.63-.163,1.245-.412,1.847-.721.114-.057.228-.117.34-.179.106-.06.218-.104.322-.169l84.808-52.883c.156.897.252,1.808.252,2.749v84.865Z" fill="#fff"/></g></g></svg>
