<svg id="eOz2gdhxJmB1" xmlns="http://www.w3.org/2000/svg" xmlns:xlink="http://www.w3.org/1999/xlink" viewBox="0 0 152 152" shape-rendering="geometricPrecision" text-rendering="geometricPrecision"><g><g><path d="M76,0C34.026359,0,0,34.026359,0,76s34.026359,76,76,76s76-34.026359,76-76-34.026359-76-76-76ZM53.9,116h-16.58v-53.41h16.58ZM45.6,55.3c-5.328173.022014-9.665879-4.278479-9.689773-9.606643s4.275069-9.667388,9.603225-9.693162s9.668895,4.271658,9.696548,9.599805c.011145,5.326696-4.283432,9.661492-9.61,9.7ZM116,116h-16.57v-26c0-6.2-.12-14.15-8.62-14.15s-10,6.74-10,13.7v26.45h-16.51v-53.41h15.91v7.28h.23c2.21-4.2,7.62-8.63,15.69-8.63C112.91,61.24,116,72.3,116,86.66Z" fill="#fff"/></g></g></svg>
