<?xml version="1.0" encoding="iso-8859-1"?>
<!-- Generator: Adobe Illustrator 19.0.0, SVG Export Plug-In . SVG Version: 6.00 Build 0)  -->
<svg version="1.1" id="Capa_1" xmlns="http://www.w3.org/2000/svg" xmlns:xlink="http://www.w3.org/1999/xlink" x="0px" y="0px"
	 viewBox="0 0 512 512" style="enable-background:new 0 0 512 512;" xml:space="preserve">
<g>
	<g>
		<path d="M256,90.579c-26.02,0-47.19,21.17-47.19,47.19c0,26.02,21.17,47.19,47.19,47.19c26.02,0,47.19-21.17,47.19-47.19
			S282.02,90.579,256,90.579z"/>
	</g>
</g>
<g>
	<g>
		<path d="M409.751,379.418c-23.949-6.822-52.399-11.858-83.361-14.89c-30.021,45.326-55.957,78.228-58.531,81.473
			c-2.871,3.62-7.239,5.73-11.859,5.73s-8.988-2.11-11.859-5.73c-2.573-3.245-28.51-36.146-58.531-81.473
			c-30.962,3.032-59.412,8.068-83.361,14.89c-48.411,13.791-72.958,33.027-72.958,57.175s24.547,43.384,72.958,57.175
			C143.522,505.526,198.123,512,256,512s112.478-6.475,153.75-18.231c48.411-13.791,72.958-33.027,72.958-57.175
			S458.162,393.209,409.751,379.418z"/>
	</g>
</g>
<g>
	<g>
		<path d="M256.001,0c-75.965,0-137.769,61.802-137.769,137.769c0,40.541,25.647,103.197,74.169,181.193
			c24.642,39.611,49.461,73.868,63.599,92.723c14.175-18.909,39.089-53.3,63.756-92.974
			c48.419-77.878,74.013-140.447,74.013-180.941C393.769,61.802,331.966,0,256.001,0z M256.001,215.235
			c-42.714,0-77.466-34.752-77.466-77.466c0-42.715,34.752-77.466,77.466-77.466s77.466,34.751,77.466,77.466
			C333.467,180.484,298.715,215.235,256.001,215.235z"/>
	</g>
</g>
<g>
</g>
<g>
</g>
<g>
</g>
<g>
</g>
<g>
</g>
<g>
</g>
<g>
</g>
<g>
</g>
<g>
</g>
<g>
</g>
<g>
</g>
<g>
</g>
<g>
</g>
<g>
</g>
<g>
</g>
</svg>
