<svg id="eLsiYtloPr81" xmlns="http://www.w3.org/2000/svg" xmlns:xlink="http://www.w3.org/1999/xlink" viewBox="0 0 254000 254000" shape-rendering="geometricPrecision" text-rendering="geometricPrecision"><g clip-rule="evenodd"><path d="M127000,254000C56871,254000,0,197129,0,127000C0,56871,56871,0,127000,0s127000,56871,127000,127000-56871,127000-127000,127000Zm0-209606c34742,0,62905,28163,62905,62905c0,34741-62905,102306-62905,102306s-62905-67565-62905-102306c0-34742,28163-62905,62905-62905Zm0,37912c13172,0,23854,10682,23854,23855c0,13172-10682,23854-23854,23854s-23854-10682-23854-23854c0-13173,10682-23855,23854-23855Z" clip-rule="evenodd" fill="#fff" fill-rule="evenodd"/></g></svg>
